<?xml version="1.0" standalone="no"?>
<!DOCTYPE svg PUBLIC "-//W3C//DTD SVG 20010904//EN"
 "http://www.w3.org/TR/2001/REC-SVG-20010904/DTD/svg10.dtd">
<svg version="1.0" xmlns="http://www.w3.org/2000/svg"
 width="2000.000000pt" height="518.000000pt" viewBox="0 0 2000.000000 518.000000"
 preserveAspectRatio="xMidYMid meet">
<metadata>
Created by potrace 1.14, written by Peter Selinger 2001-2017
</metadata>
<g transform="translate(0.000000,518.000000) scale(0.100000,-0.100000)"
fill="#000000" stroke="none">
<path d="M6920 4150 l0 -210 230 0 230 0 0 -230 0 -230 210 0 210 0 0 440 0
440 -440 0 -440 0 0 -210z"/>
<path d="M1698 3535 c-342 -65 -593 -290 -695 -622 -24 -80 -27 -103 -26 -248
0 -187 16 -263 86 -410 121 -250 353 -419 640 -465 48 -8 128 -11 214 -7 159
5 264 31 398 97 81 40 245 161 245 181 0 10 -165 252 -198 292 -15 17 -17 16
-46 -11 -114 -106 -289 -181 -423 -182 -276 -1 -483 220 -483 514 0 292 188
486 472 486 141 0 265 -42 392 -134 l50 -35 16 27 c9 15 54 87 98 159 l82 133
-58 46 c-77 61 -239 139 -342 164 -113 28 -317 35 -422 15z"/>
<path d="M8571 3535 c-157 -36 -283 -131 -348 -263 -37 -73 -38 -80 -38 -182
0 -99 2 -109 33 -172 49 -100 126 -165 287 -243 72 -34 186 -90 255 -123 136
-65 202 -118 242 -194 18 -34 23 -59 23 -123 0 -70 -4 -87 -29 -133 -53 -95
-149 -149 -281 -159 -135 -10 -302 46 -416 139 l-56 46 -42 -53 c-22 -30 -44
-60 -47 -68 -8 -21 74 -88 164 -135 203 -106 450 -120 627 -37 85 41 168 123
211 211 32 64 37 85 42 167 9 185 -57 309 -226 416 -30 19 -133 70 -230 113
-255 114 -320 157 -365 242 -34 64 -31 165 8 234 95 172 348 221 568 111 34
-18 76 -43 94 -56 18 -14 36 -23 40 -20 4 3 24 34 43 70 l35 65 -25 21 c-42
34 -171 98 -235 115 -86 24 -255 29 -334 11z"/>
<path d="M18461 3535 c-157 -36 -283 -131 -348 -263 -37 -73 -38 -80 -38 -182
0 -99 2 -109 33 -172 49 -100 126 -165 287 -243 72 -34 186 -90 255 -123 136
-65 202 -118 242 -194 18 -34 23 -59 23 -123 0 -70 -4 -87 -29 -133 -53 -95
-149 -149 -281 -159 -135 -10 -302 46 -416 139 l-56 46 -42 -53 c-22 -30 -44
-60 -47 -68 -8 -21 74 -88 164 -135 203 -106 450 -120 627 -37 85 41 168 123
211 211 32 64 37 85 42 167 9 185 -57 309 -226 416 -30 19 -133 70 -230 113
-255 114 -320 157 -365 242 -34 64 -31 165 8 234 95 172 348 221 568 111 34
-18 76 -43 94 -56 18 -14 36 -23 40 -20 4 3 24 34 43 70 l35 65 -25 21 c-42
34 -171 98 -235 115 -86 24 -255 29 -334 11z"/>
<path d="M2820 2660 l0 -860 563 2 562 3 0 180 0 180 -352 3 -353 2 0 675 0
675 -210 0 -210 0 0 -860z"/>
<path d="M4140 2933 c0 -476 3 -601 15 -657 48 -225 231 -408 475 -473 93 -26
368 -25 460 1 229 64 400 230 466 452 16 53 18 124 21 662 l4 602 -215 0 -216
0 0 -584 0 -584 -28 -53 c-97 -188 -433 -185 -535 5 -22 41 -22 44 -25 629
l-3 587 -209 0 -210 0 0 -587z"/>
<path d="M6070 3340 l0 -180 236 0 235 0 -3 -442 c-3 -426 -4 -444 -24 -478
-62 -107 -205 -107 -261 0 -19 36 -23 59 -23 132 l0 88 -212 -2 -213 -3 2
-108 c2 -123 19 -200 64 -289 61 -121 199 -223 354 -263 76 -19 231 -19 314 0
188 45 333 175 393 354 22 65 23 75 26 719 l3 652 -446 0 -445 0 0 -180z"/>
<path d="M9290 3445 l0 -75 305 0 305 0 0 -780 0 -780 85 0 85 0 0 780 0 780
305 0 305 0 0 75 0 75 -695 0 -695 0 0 -75z"/>
<path d="M11170 3463 c-12 -32 -152 -413 -312 -848 -159 -434 -292 -794 -295
-798 -3 -4 37 -6 87 -5 l92 3 96 268 96 267 346 0 347 0 93 -260 c52 -143 97
-265 100 -271 4 -6 41 -9 93 -7 l86 3 -313 850 -312 850 -91 3 -91 3 -22 -58z
m280 -621 c66 -183 120 -335 120 -338 0 -2 -131 -4 -291 -4 -273 0 -291 1
-287 18 3 9 57 159 121 332 64 173 125 349 137 390 12 41 24 82 27 90 3 8 16
-23 29 -70 13 -47 78 -235 144 -418z"/>
<path d="M12220 2665 l0 -855 85 0 85 0 0 360 0 360 214 0 213 0 193 -360 192
-360 94 0 c52 0 94 2 94 5 0 8 -345 647 -381 708 -26 43 -27 48 -12 53 140 48
248 167 288 319 8 33 15 96 15 140 0 259 -152 443 -393 475 -43 5 -215 10
-383 10 l-304 0 0 -855z m655 694 c74 -13 109 -31 158 -78 72 -67 103 -165 94
-289 -11 -147 -90 -253 -215 -292 -56 -17 -93 -20 -293 -20 l-229 0 0 345 0
345 213 0 c117 0 240 -5 272 -11z"/>
<path d="M13460 3445 l0 -75 305 0 305 0 0 -780 0 -780 85 0 85 0 0 780 0 780
305 0 305 0 0 75 0 75 -695 0 -695 0 0 -75z"/>
<path d="M15042 2893 c3 -617 4 -629 25 -693 68 -199 223 -341 433 -397 90
-24 300 -24 390 0 222 59 375 207 437 422 15 53 18 128 21 678 l3 617 -86 0
-85 0 0 -587 c0 -637 -2 -658 -56 -764 -52 -103 -145 -175 -273 -213 -68 -20
-236 -21 -308 -2 -149 40 -252 132 -306 274 -21 56 -22 69 -25 675 l-3 617
-85 0 -85 0 3 -627z"/>
<path d="M16760 2665 l0 -855 85 0 85 0 0 335 0 335 243 0 c337 0 423 22 548
137 97 91 145 195 156 338 20 280 -133 495 -392 550 -53 11 -148 15 -397 15
l-328 0 0 -855z m672 694 c147 -32 241 -129 268 -279 34 -186 -51 -359 -205
-421 -56 -22 -75 -24 -312 -27 l-253 -4 0 371 0 371 225 0 c128 0 247 -5 277
-11z"/>
<path d="M8261 1234 c-134 -67 -159 -237 -52 -344 73 -73 165 -89 257 -46 59
27 71 41 54 61 -10 11 -19 10 -57 -11 -141 -74 -304 44 -263 191 31 110 166
165 264 107 30 -18 41 -20 52 -11 23 19 16 29 -38 54 -73 34 -147 34 -217 -1z"/>
<path d="M8726 1240 c-53 -27 -82 -55 -106 -105 -50 -102 -2 -237 103 -292 82
-42 205 -21 270 45 143 147 43 373 -165 372 -42 -1 -76 -7 -102 -20z m192 -47
c66 -32 106 -126 82 -197 -26 -80 -90 -126 -175 -126 -53 0 -88 16 -127 57
-51 54 -61 119 -29 189 41 91 149 124 249 77z"/>
<path d="M9180 1040 l0 -220 25 0 25 0 0 177 0 178 131 -178 c106 -142 136
-177 155 -177 l24 0 0 220 0 220 -25 0 -25 0 -2 -171 -3 -172 -125 171 c-108
148 -129 171 -152 171 l-28 1 0 -220z"/>
<path d="M9700 1040 l0 -220 25 0 25 0 0 177 0 178 131 -178 c106 -143 136
-177 155 -177 l24 0 0 220 0 220 -25 0 -25 0 -2 -172 -3 -172 -127 172 c-107
144 -132 172 -153 172 l-25 0 0 -220z"/>
<path d="M10220 1040 l0 -220 150 0 150 0 0 25 0 25 -125 0 -125 0 0 75 0 75
110 0 110 0 0 25 0 25 -110 0 -110 0 0 75 0 75 125 0 c118 0 125 1 125 20 0
19 -7 20 -150 20 l-150 0 0 -220z"/>
<path d="M10709 1232 c-128 -67 -156 -230 -58 -337 69 -75 171 -95 265 -51 59
27 71 41 54 61 -10 11 -19 10 -58 -11 -181 -98 -362 128 -216 270 62 60 147
69 222 24 26 -16 35 -18 47 -8 23 19 19 26 -37 54 -73 36 -147 36 -219 -2z"/>
<path d="M11050 1240 c0 -18 7 -20 70 -20 l70 0 0 -200 0 -200 25 0 25 0 2
198 3 197 73 3 c64 3 72 5 72 22 0 19 -8 20 -170 20 -163 0 -170 -1 -170 -20z"/>
<path d="M11650 1240 c0 -17 8 -19 73 -22 l72 -3 3 -197 2 -198 25 0 25 0 0
200 0 200 70 0 c63 0 70 2 70 20 0 19 -7 20 -170 20 -162 0 -170 -1 -170 -20z"/>
<path d="M12154 1241 c-138 -63 -172 -256 -62 -358 109 -102 302 -72 368 57
59 116 8 254 -112 305 -51 21 -143 19 -194 -4z m149 -32 c46 -12 100 -58 117
-99 20 -47 8 -132 -23 -173 -69 -91 -222 -89 -288 5 -30 41 -38 132 -16 174
21 41 59 73 104 89 47 17 58 18 106 4z"/>
<path d="M12914 1236 c-143 -67 -167 -249 -46 -358 70 -63 180 -75 271 -29
l41 21 0 85 c0 78 -2 85 -20 85 -18 0 -20 -7 -20 -69 0 -68 0 -69 -34 -85 -41
-20 -115 -21 -159 -2 -44 18 -95 78 -103 121 -14 76 26 158 93 191 53 26 129
24 178 -5 33 -19 40 -20 53 -8 19 20 8 35 -42 58 -59 27 -148 25 -212 -5z"/>
<path d="M13320 1039 l0 -220 28 3 c26 3 27 5 30 71 l3 67 69 0 70 0 46 -70
c40 -60 51 -70 76 -70 33 0 34 -4 -28 85 l-42 60 39 33 c85 72 71 207 -27 248
-22 9 -73 14 -149 14 l-115 0 0 -221z m250 161 c54 -29 62 -116 14 -161 -22
-21 -37 -24 -115 -27 l-89 -4 0 107 0 108 85 -6 c46 -3 94 -11 105 -17z"/>
<path d="M13883 1239 c-116 -57 -157 -194 -93 -306 74 -130 250 -151 361 -44
78 75 90 176 33 268 -58 94 -200 132 -301 82z m197 -50 c68 -38 103 -124 80
-194 -26 -79 -90 -125 -175 -125 -53 0 -88 16 -127 57 -139 146 44 361 222
262z"/>
<path d="M14272 1248 c3 -7 36 -106 74 -220 66 -199 70 -208 95 -208 24 0 28
8 85 187 l60 188 52 -165 c68 -213 67 -210 96 -210 23 0 29 13 95 213 39 116
71 215 71 220 0 4 -11 7 -24 7 -22 0 -27 -10 -61 -117 -20 -65 -46 -149 -59
-188 l-23 -70 -59 185 c-57 175 -61 185 -86 188 -26 3 -28 -1 -71 -140 -25
-79 -51 -162 -58 -186 -7 -23 -15 -39 -18 -36 -3 3 -31 85 -61 182 -54 172
-57 177 -84 180 -21 3 -27 0 -24 -10z"/>
</g>
</svg>
