<?xml version="1.0" encoding="utf-8"?>
<!-- Generator: Adobe Illustrator 22.0.1, SVG Export Plug-In . SVG Version: 6.00 Build 0)  -->
<svg version="1.1" id="Layer_1" xmlns="http://www.w3.org/2000/svg" xmlns:xlink="http://www.w3.org/1999/xlink" x="0px" y="0px"
	 viewBox="0 0 518.6 147.2" style="enable-background:new 0 0 518.6 147.2;" xml:space="preserve">
<style type="text/css">
	.st0{fill:#333333;}
	.st1{fill:#F5B228;}
	.st2{fill-rule:evenodd;clip-rule:evenodd;fill:#FCC144;}
	.st3{fill-rule:evenodd;clip-rule:evenodd;fill:#333333;}
</style>
<g>
	<g>
		<path class="st0" d="M201.5,109.9H157c1.1,13.7,8.1,20.9,17.5,23c7.6,1.7,18.8-1.1,22.3-7.7l2.4,1.3c-2.2,7.3-10.5,18.3-29.3,18.3
			c-18.3,0-30.9-16.9-30.9-33.3c0-19.7,13.4-33.9,32.8-33.9C192,77.6,201.5,88.1,201.5,109.9z M184.5,107.6
			c0-17.6-5.7-27.6-13.4-27.6c-8.3,0-14,14.1-14,27.6H184.5z"/>
		<path class="st0" d="M237.8,141.2v2.4h-28.7v-2.4c5.3-1.5,5.6-7.4,5.6-14.6V55.8c0-4.9-1.4-7-7-9.1v-2.4l24.5-5.2v87.5
			C232.2,134.3,232.9,139.9,237.8,141.2z"/>
		<path class="st0" d="M306.4,109.9h-44.5c1.1,13.7,8.1,20.9,17.5,23c7.6,1.7,18.8-1.1,22.3-7.7l2.4,1.3
			c-2.2,7.3-10.5,18.3-29.3,18.3c-18.3,0-30.9-16.9-30.9-33.3c0-19.7,13.4-33.9,32.8-33.9C296.9,77.6,306.4,88.1,306.4,109.9z
			 M289.3,107.6c0-17.6-5.7-27.6-13.4-27.6c-8.3,0-14,14.1-14,27.6H289.3z"/>
		<path class="st0" d="M387,112c0,22.5-14.8,32.8-34.4,32.8c-8.4,0-15.8-2.5-20.4-7.1c-5,4.3-13.7,7.4-13.7,5.2V55.6
			c0-4.8-1.4-6.9-7.1-9v-2.4l24.5-5.2v50.4c4.5-8.4,14.8-11.9,21.6-11.9C373,77.6,387,89.9,387,112z M367,113.2
			c0-22.4-5.2-29.7-16.7-29.7c-9.5,0-14.6,7.8-14.6,17.8V119c0,17.6,8.7,23.4,16.7,23.4C362.7,142.4,367,134.6,367,113.2z"/>
		<path class="st1" d="M444,80.1c4.3,3.8,4.8,10.5,1,14.7c-3.8,4.3-10.2,4.9-14.7,1.1c-2.1-2-3.2-4.3-3.2-6.9
			c0-1.5-5.7-0.1-10.9,8.3v29.1c0,7.8,0.7,13.3,5.7,14.7v2.4h-29v-2.4c5.5-1.7,5.6-7.4,5.6-14.7V95.4c0-4.8-1.3-6.9-7-9.8v-2.4
			l24.6-5.6v15.8c7.4-11.6,13.2-13.7,16.5-15.1C435.6,77,440.9,77.6,444,80.1z"/>
		<path class="st1" d="M518.6,111.2c0,18.3-11.9,33.6-33.3,33.6c-21.3,0-33.3-15.3-33.3-33.6c0-18.5,12-33.6,33.3-33.6
			C506.7,77.6,518.6,92.7,518.6,111.2z M497.9,111.2c0-25.3-2.5-31.2-12.6-31.2s-12.7,5.9-12.7,31.2s2.7,31.2,12.7,31.2
			S497.9,136.5,497.9,111.2z"/>
	</g>
	<g>
		<path class="st2" d="M76.2,16.4c10.4-0.1,10.3,13.8,12.3,24.8s4.3,10.2,2.6,16.6C89.4,64.2,88,68,95,76.8c7,8.8-4.6,12-4.6,12
			c0.8,3.3,2.5,9,2.6,11.9c0.1,3.2-2.3,3.6-2.3,3.6s3.8,6-1.1,8.3c-4.8,2.3-4.2,1.5-3.5,4.8c0.7,3.3,0.9,19.4-25,12.2
			C33.8,122,24.6,98.5,24.3,73C23.8,39.8,48.7,16.7,76.2,16.4z"/>
	</g>
	<path class="st3" d="M115.7,101.9c-5.2,21.8-21.6,40.4-45.6,40.4c-11,0-19.5-3.6-25.2-14.4c1.3,0.5,2.6,0.9,4,1.3
		c25.9,7.2,25.7-8.9,25-12.2c-0.7-3.3-1.3-2.5,3.5-4.8c4.8-2.3,1.1-8.3,1.1-8.3s2.4-0.4,2.3-3.6c-0.1-2.8-1.8-8.6-2.6-11.9
		c0,0,11.7-3.2,4.6-12c-7-8.8-5.6-12.5-3.8-19c1.7-6.4-0.7-5.6-2.6-16.6c-2-11-1.9-24.9-12.3-24.8c-7,0.1-13.9,1.7-20.2,4.5
		c5.6-11.9,14.2-15.8,26-15.8c22.8,0,34.4,13.2,45.6,40.2h3.4l2.8-31.4C109.3,3.3,90.7,1.3,70.1,1.3C27.3,1.3,0.7,33.7,0.7,73.5
		s26.6,72.2,69.4,72.2c21.4,0,37-2.6,51.8-12.4l-2.8-31.4H115.7z"/>
</g>
</svg>
